<?xml version="1.0" standalone="no"?>
<!DOCTYPE svg PUBLIC "-//W3C//DTD SVG 20010904//EN"
 "http://www.w3.org/TR/2001/REC-SVG-20010904/DTD/svg10.dtd">
<svg version="1.0" xmlns="http://www.w3.org/2000/svg"
 width="328.000000pt" height="306.000000pt" viewBox="0 0 328.000000 306.000000"
 preserveAspectRatio="xMidYMid meet">

<g transform="translate(0.000000,306.000000) scale(0.100000,-0.100000)"
fill="#000000" stroke="none">
<path d="M0 1530 l0 -1530 1640 0 1640 0 0 1530 0 1530 -1640 0 -1640 0 0
-1530z m1533 773 c15 -8 61 -45 101 -84 l74 -70 63 62 c99 96 127 112 207 112
44 1 77 -5 97 -16 96 -53 139 -150 114 -255 -11 -43 -33 -68 -243 -279 -126
-128 -235 -233 -241 -233 -17 0 -451 441 -469 477 -26 52 -22 155 9 202 31 51
86 92 133 102 47 9 119 1 155 -18z m1038 -714 c6 -12 11 -62 11 -111 0 -85 -2
-92 -29 -120 -24 -26 -203 -148 -217 -148 -2 0 -33 -13 -68 -29 -140 -65 -360
-123 -251 -66 49 26 140 88 203 139 66 54 255 252 290 304 19 28 38 52 42 52
4 0 12 -10 19 -21z m305 -14 c41 -98 -5 -261 -121 -434 -63 -94 -103 -141
-229 -266 -177 -176 -332 -285 -511 -359 -22 -10 -48 -21 -57 -26 -10 -6 -37
-15 -60 -21 -24 -5 -70 -17 -103 -25 -110 -28 -159 -33 -345 -33 -213 0 -370
16 -490 48 -158 44 -323 94 -375 116 -16 7 -87 34 -157 61 -85 33 -128 54
-128 64 0 21 64 143 115 220 80 120 148 191 267 283 40 31 140 75 223 98 67
19 107 22 245 23 111 1 183 -4 219 -13 34 -9 113 -14 205 -15 151 -1 213 8
344 50 62 20 82 18 82 -8 0 -100 -88 -197 -223 -246 -23 -8 -87 -25 -142 -36
l-100 -22 -3 -35 c-4 -49 20 -68 99 -75 62 -6 212 8 274 25 125 36 217 69 324
118 62 28 215 124 271 170 111 90 249 233 324 336 15 20 29 37 32 37 3 0 12
-16 20 -35z"/>
</g>
</svg>
